<svg width="57" height="34" viewBox="0 0 57 34" fill="#000000" xmlns="http://www.w3.org/2000/svg">
<path fill-rule="evenodd" clip-rule="evenodd" d="M15.8231 4.91162L14.9844 6.5891L18.9322 8.56297H22.9055V6.68797H19.3753L15.8231 4.91162Z" fill="black"/>
<path fill-rule="evenodd" clip-rule="evenodd" d="M25.85 4.81299C24.2834 4.81299 22.8188 5.5967 21.9498 6.90039L21.9685 6.87407L17.4569 13.1729C17.357 13.3134 17.2977 13.4786 17.2856 13.6506C17.2734 13.8225 17.3087 13.9943 17.3878 14.1475C17.4668 14.3006 17.5865 14.429 17.7337 14.5187C17.8809 14.6084 18.0499 14.6561 18.2223 14.6561H22.8438C23.7837 14.6561 24.6627 14.1853 25.184 13.4034L25.9456 12.261C26.12 11.9995 26.4115 11.8436 26.7256 11.8436H27.9672C28.1528 11.8436 28.3315 11.8998 28.4836 12.001L42.8243 21.5626C43.5065 22.0172 43.6606 22.917 43.1686 23.5728L43.1142 23.6497C42.6775 24.2319 41.8926 24.3869 41.2685 24.0123L33.7062 19.4752C33.6004 19.4117 33.4831 19.3695 33.3611 19.3513C33.239 19.3332 33.1146 19.3393 32.9949 19.3692C32.8752 19.3991 32.7626 19.4525 32.6634 19.526C32.5643 19.5994 32.4806 19.6916 32.4171 19.7974C32.3536 19.9032 32.3116 20.0205 32.2935 20.1426C32.2753 20.2646 32.2814 20.3889 32.3113 20.5086C32.3412 20.6283 32.3945 20.7411 32.4679 20.8402C32.5414 20.9393 32.6336 21.023 32.7395 21.0865L40.3017 25.6236C41.7374 26.4852 43.6113 26.1174 44.6157 24.7777L44.6701 24.7044C45.793 23.2074 45.4216 21.0407 43.8644 20.0025L29.5236 10.4444C29.06 10.1341 28.5177 9.97221 27.9636 9.97221H26.722C25.7823 9.97221 24.9033 10.4428 24.382 11.2247L23.6241 12.3672C23.4498 12.6288 23.1582 12.7847 22.844 12.7847H20.0463L23.4959 7.96904C23.5023 7.9604 23.5085 7.9518 23.5146 7.94295C24.0365 7.15995 24.9138 6.69028 25.8546 6.69028H31.7579C32.0187 6.69028 32.2793 6.72793 32.5308 6.80106L37.8884 8.33182C38.5651 8.52532 39.2913 8.45541 39.9209 8.14116L41.144 7.52982C41.2585 7.4772 41.3613 7.40214 41.4462 7.30894C41.5311 7.21575 41.5964 7.10632 41.6382 6.98737C41.6799 6.86841 41.6973 6.74216 41.6892 6.61635C41.6812 6.49054 41.6479 6.36784 41.5913 6.25517C41.5347 6.14251 41.456 6.04221 41.3599 5.9606C41.2638 5.87899 41.1523 5.81759 41.0319 5.78001C40.9116 5.74244 40.7849 5.72959 40.6595 5.74202C40.534 5.75445 40.4123 5.79188 40.3017 5.85234L39.0785 6.46414C38.8688 6.56914 38.63 6.59156 38.4048 6.52594L33.047 4.99518C32.6286 4.87518 32.194 4.81528 31.7579 4.81528L25.85 4.81299Z" fill="black"/>
<path fill-rule="evenodd" clip-rule="evenodd" d="M47.6797 16.231L42.9922 19.5122L44.0688 21.0503L48.7563 17.769L47.6797 16.231Z" fill="black"/>
<path fill-rule="evenodd" clip-rule="evenodd" d="M9.50727 15.8684L8.18164 17.1941L11.9316 20.9441L13.2573 19.6184L9.50727 15.8684Z" fill="black"/>
<path d="M18.5265 18.4648C17.8277 18.6091 17.1842 19.0186 16.7649 19.6549L13.0479 25.2944C12.2104 26.5656 12.5709 28.3039 13.8426 29.1394C13.8416 29.1394 13.8433 29.1399 13.8426 29.1394L13.9382 29.2014C15.2137 30.0356 16.9521 29.6722 17.7907 28.3996L21.5077 22.76C22.3453 21.4889 21.9851 19.7505 20.7131 18.915L20.6137 18.8493C19.9759 18.4319 19.2216 18.3157 18.5227 18.4609L18.5265 18.4648ZM19.5921 20.424L19.6877 20.486C20.1202 20.7688 20.2297 21.2976 19.9442 21.7311L16.227 27.3742C15.9414 27.8077 15.3999 27.9172 14.9674 27.6342L14.8717 27.5724C14.4394 27.2895 14.3299 26.7571 14.6154 26.3236L18.3324 20.6803C18.6182 20.247 19.1601 20.1376 19.5922 20.4206L19.5921 20.424Z" fill="black"/>
<path d="M20.6548 22.1233C19.9483 22.2714 19.2973 22.6865 18.875 23.3315L16.308 27.2536C15.4635 28.544 15.8308 30.3019 17.121 31.1462C18.411 31.9906 20.1693 31.6233 21.0137 30.3333L23.5809 26.4114C24.4252 25.1212 24.0581 23.3629 22.7679 22.5188C22.1227 22.0967 21.3615 21.9757 20.6548 22.1233ZM21.7425 24.0859C22.1904 24.379 22.3068 24.9379 22.0134 25.3862L19.4463 29.3079C19.1529 29.756 18.5942 29.8721 18.1462 29.5791C17.6979 29.2856 17.5818 28.7273 17.8753 28.279L20.4423 24.3569C20.7358 23.9086 21.2942 23.7925 21.7425 24.0859Z" fill="black"/>
<path d="M23.1472 25.0308C22.4414 25.1827 21.7925 25.5987 21.3748 26.2467L19.7049 28.8394C18.869 30.1351 19.2455 31.8905 20.5398 32.7286C21.8341 33.5667 23.5933 33.1893 24.4289 31.8936L26.0988 29.3006C26.9347 28.005 26.558 26.2498 25.2639 25.4117C24.6168 24.9926 23.8529 24.8791 23.1472 25.0308ZM24.2422 26.9866C24.6916 27.2776 24.8144 27.8363 24.5242 28.2865L22.8506 30.8756C22.5601 31.3258 22.0078 31.445 21.5578 31.1537C21.1083 30.8627 20.9891 30.304 21.2795 29.8538L22.9494 27.2647C23.2396 26.8147 23.7926 26.6954 24.2422 26.9866Z" fill="black"/>
<path d="M14.0738 18.4429C13.3681 18.5947 12.7192 19.0107 12.3012 19.6587L10.6313 22.2514C9.79584 23.5471 10.1757 25.3023 11.47 26.1404C12.764 26.9759 14.5205 26.6001 15.3556 25.3054L17.0255 22.7163C17.8612 21.4207 17.4847 19.6619 16.1905 18.8239C15.5433 18.4047 14.7794 18.2914 14.0738 18.4429ZM15.1724 20.3984C15.6218 20.6894 15.7411 21.2481 15.4507 21.6985L13.7808 24.2873C13.4903 24.7375 12.9376 24.8569 12.4882 24.5657C12.0385 24.2747 11.9195 23.7158 12.2097 23.2656L13.8796 20.6767C14.17 20.2266 14.7226 20.107 15.1724 20.3984Z" fill="black"/>
<path fill-rule="evenodd" clip-rule="evenodd" d="M31.3066 23.0863C31.1045 23.0925 30.9099 23.1638 30.7515 23.2895C30.5932 23.4153 30.4797 23.5887 30.4279 23.7841C30.376 23.9795 30.3887 24.1865 30.4638 24.3742C30.539 24.5619 30.6728 24.7202 30.8452 24.8258L36.1186 28.1253C37.7823 29.165 39.9903 28.7353 41.1431 27.1476L41.9485 26.0379C42.0251 25.9384 42.0809 25.8245 42.1127 25.7031C42.1445 25.5816 42.1516 25.4552 42.1336 25.3309C42.1156 25.2067 42.0729 25.0873 42.008 24.9798C41.9431 24.8724 41.8573 24.7791 41.7556 24.7054C41.654 24.6317 41.5386 24.579 41.4163 24.5507C41.294 24.5223 41.1673 24.5187 41.0436 24.5401C40.9199 24.5616 40.8018 24.6077 40.6962 24.6756C40.5906 24.7436 40.4997 24.832 40.4289 24.9356L39.6232 26.0453C39.0397 26.8491 37.9569 27.0586 37.1146 26.5323L31.8412 23.2367C31.6822 23.1339 31.4958 23.0813 31.3066 23.0863Z" fill="black"/>
<path fill-rule="evenodd" clip-rule="evenodd" d="M29.3965 26.8362C29.1932 26.8489 28.9996 26.9273 28.8447 27.0596C28.6899 27.1919 28.5823 27.3708 28.538 27.5696C28.4938 27.7683 28.5154 27.9762 28.5996 28.1617C28.6837 28.3471 28.8259 28.5001 29.0046 28.5977L33.2856 31.0438C34.9918 32.0188 37.1777 31.55 38.3321 29.9598L39.1633 28.8138C39.2399 28.7143 39.2957 28.6006 39.3275 28.4791C39.3593 28.3577 39.3664 28.231 39.3484 28.1067C39.3304 27.9825 39.2877 27.8631 39.2228 27.7556C39.1578 27.6482 39.072 27.5549 38.9704 27.4812C38.8688 27.4075 38.7534 27.3548 38.6311 27.3265C38.5088 27.2981 38.3821 27.2947 38.2584 27.3162C38.1347 27.3377 38.0165 27.3835 37.9109 27.4515C37.8054 27.5194 37.7145 27.6078 37.6436 27.7115L36.8123 28.8543C36.2117 29.6813 35.1071 29.9215 34.2195 29.4143L29.9348 26.9644C29.7722 26.8688 29.5846 26.8237 29.3965 26.8362Z" fill="black"/>
<path fill-rule="evenodd" clip-rule="evenodd" d="M25.1154 29.7585L24.4453 31.5125L30.0703 33.6621C31.4919 34.2053 33.1153 33.6811 33.9486 32.4063L34.7689 31.1501L33.1978 30.1209L32.3738 31.3772C32.0183 31.9206 31.3472 32.14 30.7404 31.9082L25.1154 29.7585Z" fill="black"/>
<path fill-rule="evenodd" clip-rule="evenodd" d="M11.6125 0.125721C11.4621 0.133027 11.3157 0.176445 11.1856 0.252293C11.0556 0.32814 10.9457 0.433997 10.8653 0.561283L1.02155 16.0296C0.952669 16.1378 0.906744 16.259 0.886613 16.3857C0.866482 16.5124 0.872572 16.6421 0.904508 16.7663C0.936444 16.8906 0.993546 17.007 1.07228 17.1083C1.15101 17.2096 1.2497 17.2936 1.36223 17.3553L6.5258 20.1678C6.73294 20.2806 6.97502 20.3113 7.20376 20.2536C7.43251 20.1959 7.63109 20.0541 7.75992 19.8565L17.5926 4.74685C17.6605 4.64217 17.7068 4.52518 17.7289 4.40238C17.7509 4.27957 17.7482 4.15357 17.7209 4.03182C17.6936 3.91007 17.6423 3.79497 17.57 3.6933C17.4977 3.59163 17.4058 3.5054 17.2997 3.4397L12.147 0.264652C11.9868 0.165783 11.8006 0.117254 11.6125 0.125721ZM11.9492 2.34496L15.4979 4.53101L6.66117 18.106L3.14198 16.187L11.9492 2.34496Z" fill="black"/>
<path fill-rule="evenodd" clip-rule="evenodd" d="M45.4092 0.12558C45.2347 0.12495 45.0635 0.172953 44.9149 0.264282L39.7622 3.4391C39.6561 3.5048 39.5643 3.59104 39.4919 3.6927C39.4196 3.79437 39.3683 3.90947 39.341 4.03122C39.3138 4.15297 39.3111 4.27897 39.3331 4.40178C39.3551 4.52458 39.4014 4.6418 39.4693 4.74648L49.302 19.8559C49.4309 20.0535 49.6294 20.1953 49.8582 20.253C50.0869 20.3107 50.329 20.28 50.5362 20.1672L55.6962 17.3547C55.809 17.2933 55.908 17.2095 55.9871 17.1084C56.0662 17.0072 56.1237 16.891 56.1559 16.7667C56.1882 16.6424 56.1946 16.5127 56.1747 16.3858C56.1549 16.2589 56.1091 16.1374 56.0404 16.029L46.1967 0.560913C46.1125 0.428061 45.9962 0.318457 45.8586 0.24231C45.721 0.166162 45.5664 0.126334 45.4092 0.12558ZM45.109 2.34482L53.92 16.1869L50.4008 18.1059L41.5641 4.53087L45.109 2.34482Z" fill="black"/>
</svg>
